<svg width="29" height="26" viewBox="0 0 29 26" fill="none" xmlns="http://www.w3.org/2000/svg">
<path d="M5.08703 13.8544C5.08549 13.846 5.08408 13.8377 5.08283 13.8292L3.31369 3.25491C3.1389 2.21017 2.23152 1.44444 1.16831 1.44444H0.724989C0.324589 1.44444 0 1.12109 0 0.722222C0 0.32335 0.324589 0 0.724989 0H1.16831C2.89642 0 4.37752 1.21376 4.72005 2.88889H28.2746C28.7562 2.88889 29.104 3.34815 28.9717 3.80952L26.0717 13.9206C25.9828 14.2307 25.6983 14.4444 25.3746 14.4444H6.65573L6.83616 15.5229C7.01095 16.5676 7.91832 17.3333 8.98153 17.3333H25.3746C25.775 17.3333 26.0996 17.6567 26.0996 18.0556C26.0996 18.4544 25.775 18.7778 25.3746 18.7778H8.98153C7.20952 18.7778 5.69723 17.5016 5.40591 15.7603L5.08703 13.8544V13.8544ZM4.96409 4.33333L6.41407 13H24.8278L27.3134 4.33333H4.96409ZM8.69987 26C7.09827 26 5.79991 24.7066 5.79991 23.1111C5.79991 21.5156 7.09827 20.2222 8.69987 20.2222C10.3015 20.2222 11.5998 21.5156 11.5998 23.1111C11.5998 24.7066 10.3015 26 8.69987 26ZM8.69987 24.5556C9.50067 24.5556 10.1498 23.9089 10.1498 23.1111C10.1498 22.3134 9.50067 21.6667 8.69987 21.6667C7.89907 21.6667 7.24989 22.3134 7.24989 23.1111C7.24989 23.9089 7.89907 24.5556 8.69987 24.5556ZM21.7497 26C20.1481 26 18.8497 24.7066 18.8497 23.1111C18.8497 21.5156 20.1481 20.2222 21.7497 20.2222C23.3513 20.2222 24.6496 21.5156 24.6496 23.1111C24.6496 24.7066 23.3513 26 21.7497 26ZM21.7497 24.5556C22.5505 24.5556 23.1996 23.9089 23.1996 23.1111C23.1996 22.3134 22.5505 21.6667 21.7497 21.6667C20.9489 21.6667 20.2997 22.3134 20.2997 23.1111C20.2997 23.9089 20.9489 24.5556 21.7497 24.5556Z" fill="white"/>
</svg>
