<svg width="464" height="141" viewBox="0 0 464 141" fill="none" xmlns="http://www.w3.org/2000/svg">
<path d="M460.475 105.688H456.95V81.8295C456.95 79.0266 455.826 76.334 453.844 74.3477L431.834 52.2994C429.852 50.3131 427.164 49.1875 424.366 49.1875H414.65V38.5938C414.65 32.7451 409.913 28 404.075 28H347.675C341.837 28 337.1 32.7451 337.1 38.5938V49.1875H324.763C323.793 49.1875 323 49.982 323 50.9531V54.4844C323 55.4555 323.793 56.25 324.763 56.25H384.688C385.657 56.25 386.45 57.0445 386.45 58.0156V61.5469C386.45 62.518 385.657 63.3125 384.688 63.3125H331.812C330.843 63.3125 330.05 64.107 330.05 65.0781V68.6094C330.05 69.5805 330.843 70.375 331.812 70.375H377.638C378.607 70.375 379.4 71.1695 379.4 72.1406V75.6719C379.4 76.643 378.607 77.4375 377.638 77.4375H324.763C323.793 77.4375 323 78.232 323 79.2031V82.7344C323 83.7055 323.793 84.5 324.763 84.5H370.588C371.557 84.5 372.35 85.2945 372.35 86.2656V89.7969C372.35 90.768 371.557 91.5625 370.588 91.5625H337.1V119.812C337.1 131.51 346.573 141 358.25 141C369.927 141 379.4 131.51 379.4 119.812H407.6C407.6 131.51 417.073 141 428.75 141C440.427 141 449.9 131.51 449.9 119.812H460.475C462.414 119.812 464 118.223 464 116.281V109.219C464 107.277 462.414 105.688 460.475 105.688ZM358.25 130.406C352.412 130.406 347.675 125.661 347.675 119.812C347.675 113.964 352.412 109.219 358.25 109.219C364.088 109.219 368.825 113.964 368.825 119.812C368.825 125.661 364.088 130.406 358.25 130.406ZM428.75 130.406C422.912 130.406 418.175 125.661 418.175 119.812C418.175 113.964 422.912 109.219 428.75 109.219C434.588 109.219 439.325 113.964 439.325 119.812C439.325 125.661 434.588 130.406 428.75 130.406ZM446.375 84.5H414.65V59.7812H424.366L446.375 81.8295V84.5Z" fill="#CFE7F4"/>
<g clip-path="url(#clip0_28_498)">
<path d="M259.869 27.5132L245.536 7.20161C243.69 4.57756 240.165 3.42192 236.772 4.33121L213.591 10.5425L221.228 39.0444L260.36 28.559C260.195 28.2055 260.095 27.8343 259.869 27.5132ZM208.345 11.9481L185.164 18.1594C181.771 19.0687 179.296 21.8321 179.01 25.0272L176.753 49.7842C176.717 50.1756 176.816 50.5467 176.85 50.9354L215.982 40.45L208.345 11.9481ZM177.91 55.7428L187.456 91.3702C188.51 95.304 192.89 97.5512 197.234 96.3872L265.433 78.1136C269.777 76.9495 272.446 72.8134 271.392 68.8796L261.846 33.2522L177.91 55.7428Z" fill="#CFE7F4"/>
</g>
<g clip-path="url(#clip1_28_498)">
<path d="M138.878 104L137.291 86.5951C137.09 84.3489 135.35 82.4061 132.964 81.7668L116.667 77.4L111.298 97.4381L138.809 104.81C138.833 104.536 138.903 104.276 138.878 104ZM112.979 76.4118L96.682 72.045C94.2962 71.4057 91.8179 72.2182 90.5207 74.063L80.4438 88.343C80.2844 88.5687 80.2145 88.8296 80.0985 89.0782L107.61 96.4499L112.979 76.4118ZM79.0538 92.3777L72.3424 117.425C71.6013 120.191 73.478 123.099 76.5323 123.917L124.478 136.764C127.533 137.583 130.612 136.003 131.353 133.237L138.064 108.19L79.0538 92.3777Z" fill="#CFE7F4"/>
</g>
<g clip-path="url(#clip2_28_498)">
<path d="M60.794 33.9454L54.7563 17.5439C53.9807 15.4262 51.7972 14 49.3272 14H32.4553V34.7449H60.9372C60.8894 34.4748 60.8894 34.2047 60.794 33.9454ZM28.637 14H11.765C9.29509 14 7.11152 15.4262 6.33594 17.5439L0.298302 33.9454C0.202845 34.2047 0.202845 34.4748 0.155117 34.7449H28.637V14ZM0 38.2024L0 64.1335C0 66.9968 2.5654 69.3198 5.7274 69.3198H55.3649C58.5269 69.3198 61.0923 66.9968 61.0923 64.1335V38.2024H0Z" fill="#CFE7F4"/>
</g>
<defs>
<clipPath id="clip0_28_498">
<rect width="86.897" height="78.6862" fill="white" transform="translate(169 22.4906) rotate(-15)"/>
</clipPath>
<clipPath id="clip1_28_498">
<rect width="61.0923" height="55.3198" fill="white" transform="translate(85.3179 69) rotate(15)"/>
</clipPath>
<clipPath id="clip2_28_498">
<rect width="61.0923" height="55.3198" fill="white" transform="translate(0 14)"/>
</clipPath>
</defs>
</svg>
