<svg width="156" height="39" viewBox="0 0 156 39" fill="none" xmlns="http://www.w3.org/2000/svg">
<path d="M22.282 10.748V29H17.836V18.054L13.754 29H10.166L6.058 18.028V29H1.612V10.748H6.864L11.986 23.384L17.056 10.748H22.282ZM29.8472 10.748V21.668C29.8472 22.76 30.1159 23.6007 30.6532 24.19C31.1905 24.7793 31.9792 25.074 33.0192 25.074C34.0592 25.074 34.8565 24.7793 35.4112 24.19C35.9659 23.6007 36.2432 22.76 36.2432 21.668V10.748H40.6892V21.642C40.6892 23.2713 40.3425 24.6493 39.6492 25.776C38.9559 26.9027 38.0199 27.752 36.8412 28.324C35.6799 28.896 34.3799 29.182 32.9412 29.182C31.5025 29.182 30.2112 28.9047 29.0672 28.35C27.9405 27.778 27.0479 26.9287 26.3892 25.802C25.7305 24.658 25.4012 23.2713 25.4012 21.642V10.748H29.8472ZM60.1392 29H55.6932L48.2572 17.742V29H43.8112V10.748H48.2572L55.6932 22.058V10.748H60.1392V29ZM70.2 10.748C72.124 10.748 73.8053 11.1293 75.244 11.892C76.6827 12.6547 77.792 13.7293 78.572 15.116C79.3693 16.4853 79.768 18.0713 79.768 19.874C79.768 21.6593 79.3693 23.2453 78.572 24.632C77.792 26.0187 76.674 27.0933 75.218 27.856C73.7793 28.6187 72.1067 29 70.2 29H63.362V10.748H70.2ZM69.914 25.152C71.5953 25.152 72.904 24.6927 73.84 23.774C74.776 22.8553 75.244 21.5553 75.244 19.874C75.244 18.1927 74.776 16.884 73.84 15.948C72.904 15.012 71.5953 14.544 69.914 14.544H67.808V25.152H69.914ZM90.8846 29.182C89.1686 29.182 87.5913 28.7833 86.1526 27.986C84.7313 27.1887 83.596 26.0793 82.7466 24.658C81.9146 23.2193 81.4986 21.6073 81.4986 19.822C81.4986 18.0367 81.9146 16.4333 82.7466 15.012C83.596 13.5907 84.7313 12.4813 86.1526 11.684C87.5913 10.8867 89.1686 10.488 90.8846 10.488C92.6006 10.488 94.1693 10.8867 95.5906 11.684C97.0293 12.4813 98.156 13.5907 98.9706 15.012C99.8026 16.4333 100.219 18.0367 100.219 19.822C100.219 21.6073 99.8026 23.2193 98.9706 24.658C98.1386 26.0793 97.012 27.1887 95.5906 27.986C94.1693 28.7833 92.6006 29.182 90.8846 29.182ZM90.8846 25.126C92.3406 25.126 93.502 24.6407 94.3686 23.67C95.2526 22.6993 95.6946 21.4167 95.6946 19.822C95.6946 18.21 95.2526 16.9273 94.3686 15.974C93.502 15.0033 92.3406 14.518 90.8846 14.518C89.4113 14.518 88.2326 14.9947 87.3486 15.948C86.482 16.9013 86.0486 18.1927 86.0486 19.822C86.0486 21.434 86.482 22.7253 87.3486 23.696C88.2326 24.6493 89.4113 25.126 90.8846 25.126ZM114.574 10.748V14.31H107.138V18.158H112.702V21.616H107.138V29H102.692V10.748H114.574ZM125.543 29.182C123.827 29.182 122.249 28.7833 120.811 27.986C119.389 27.1887 118.254 26.0793 117.405 24.658C116.573 23.2193 116.157 21.6073 116.157 19.822C116.157 18.0367 116.573 16.4333 117.405 15.012C118.254 13.5907 119.389 12.4813 120.811 11.684C122.249 10.8867 123.827 10.488 125.543 10.488C127.259 10.488 128.827 10.8867 130.249 11.684C131.687 12.4813 132.814 13.5907 133.629 15.012C134.461 16.4333 134.877 18.0367 134.877 19.822C134.877 21.6073 134.461 23.2193 133.629 24.658C132.797 26.0793 131.67 27.1887 130.249 27.986C128.827 28.7833 127.259 29.182 125.543 29.182ZM125.543 25.126C126.999 25.126 128.16 24.6407 129.027 23.67C129.911 22.6993 130.353 21.4167 130.353 19.822C130.353 18.21 129.911 16.9273 129.027 15.974C128.16 15.0033 126.999 14.518 125.543 14.518C124.069 14.518 122.891 14.9947 122.007 15.948C121.14 16.9013 120.707 18.1927 120.707 19.822C120.707 21.434 121.14 22.7253 122.007 23.696C122.891 24.6493 124.069 25.126 125.543 25.126ZM153.678 29H149.232L141.796 17.742V29H137.35V10.748H141.796L149.232 22.058V10.748H153.678V29Z" fill="white"/>
<ellipse cx="91.4458" cy="19.5" rx="10.4458" ry="10.5" fill="#07689F"/>
<path d="M89.0206 13.6333C90.7411 11.4098 86.5311 11.7804 85.9167 10.5451C81.6155 13.3245 80.3867 17.9569 81.3084 21.9716C82.5373 23.2069 83.1832 22.5892 83.4905 24.1333C83.7977 25.6775 88.0989 26.2951 88.7134 25.0598C89.3278 23.8245 85.9483 23.2069 85.9483 21.3539C85.9483 19.501 88.7134 22.2804 90.2495 22.2804C91.7857 22.2804 91.7857 20.1186 91.1712 18.5745C90.5568 17.0304 89.9423 19.1922 88.7134 18.2657C87.4845 17.3392 85.9483 20.4275 85.0266 15.7951C84.105 11.1628 86.87 16.4128 89.0206 13.6333Z" fill="#63B93B"/>
<path d="M101.277 22.5879C102.015 20.1173 103.428 15.7938 97.8978 11.1614C97.8978 12.9114 96.9147 15.9791 94.2111 14.2496C90.8315 12.0879 92.3677 16.4114 94.5183 17.3379C96.6689 18.2643 99.1267 23.8232 96.6689 22.5879C94.211 21.3526 94.5183 25.6761 94.5183 25.9849C94.5183 26.2938 99.0934 29.9055 101.277 22.5879Z" fill="#63B93B"/>
</svg>
