<svg width="35" height="29" viewBox="0 0 35 29" fill="none" xmlns="http://www.w3.org/2000/svg"><path d="M31.4024 7.22732C31.4246 7.54449 31.4246 7.86173 31.4246 8.1789C31.4246 17.8531 24.207 29 11.0153 29C6.95115 29 3.17578 27.7992 0 25.7149C0.577434 25.7828 1.13258 25.8055 1.73223 25.8055C5.08562 25.8055 8.1726 24.65 10.6377 22.6789C7.48415 22.6109 4.84137 20.5039 3.93082 17.6039C4.37502 17.6718 4.81915 17.7172 5.28557 17.7172C5.92958 17.7172 6.57367 17.6265 7.17325 17.468C3.88645 16.7882 1.42127 13.843 1.42127 10.2859V10.1953C2.37618 10.7391 3.48668 11.0789 4.66363 11.1242C2.73151 9.8101 1.4657 7.56716 1.4657 5.02964C1.4657 3.67029 1.82096 2.42419 2.44283 1.33668C5.97395 5.77731 11.2817 8.67726 17.2335 8.9945C17.1224 8.45075 17.0558 7.8844 17.0558 7.31798C17.0558 3.28512 20.2538 0 24.229 0C26.2944 0 28.1599 0.883592 29.4702 2.31094C31.0913 1.99376 32.6459 1.38202 34.0229 0.543754C33.4898 2.24301 32.3572 3.67036 30.8693 4.57654C32.3129 4.41803 33.712 4.01012 35 3.44377C34.023 4.89372 32.8015 6.18507 31.4024 7.22732Z" fill="#C4C4C4"/></svg>
