<svg width="26" height="26" viewBox="0 0 26 26" fill="none" xmlns="http://www.w3.org/2000/svg">
<path d="M18.0015 14.5286L23.6186 17.0819C25.0689 17.7411 26 19.1871 26 20.7802V21.9375C26 24.1812 24.1812 26 21.9375 26H4.0625C1.81884 26 0 24.1812 0 21.9375V20.7802C0 19.1871 0.931136 17.7411 2.38143 17.0819L7.99851 14.5286C6.09715 13.0415 4.875 10.726 4.875 8.125C4.875 3.63769 8.51269 0 13 0C17.4873 0 21.125 3.63769 21.125 8.125C21.125 10.726 19.9029 13.0415 18.0015 14.5286ZM9.68706 15.5461L3.05385 18.5612C2.18368 18.9567 1.625 19.8244 1.625 20.7802V21.9375C1.625 23.2837 2.71631 24.375 4.0625 24.375H21.9375C23.2837 24.375 24.375 23.2837 24.375 21.9375V20.7802C24.375 19.8244 23.8163 18.9567 22.9461 18.5612L16.3129 15.5461C15.3012 15.9985 14.18 16.25 13 16.25C11.82 16.25 10.6988 15.9985 9.68706 15.5461ZM13 14.625C16.5899 14.625 19.5 11.7149 19.5 8.125C19.5 4.53515 16.5899 1.625 13 1.625C9.41015 1.625 6.5 4.53515 6.5 8.125C6.5 11.7149 9.41015 14.625 13 14.625Z" fill="white"/>
</svg>
