<svg width="37" height="25" viewBox="0 0 37 25" fill="none" xmlns="http://www.w3.org/2000/svg"><path d="M36.2268 3.91165C35.8013 2.37194 34.5476 1.15931 32.9557 0.747786C30.0702 0 18.5 0 18.5 0C18.5 0 6.92984 0 4.04434 0.747786C2.45244 1.15937 1.19868 2.37194 0.773151 3.91165C0 6.70247 0 12.5253 0 12.5253C0 12.5253 0 18.348 0.773151 21.1389C1.19868 22.6786 2.45244 23.8407 4.04434 24.2522C6.92984 25 18.5 25 18.5 25C18.5 25 30.0702 25 32.9557 24.2522C34.5476 23.8407 35.8013 22.6786 36.2268 21.1389C37 18.348 37 12.5253 37 12.5253C37 12.5253 37 6.70247 36.2268 3.91165ZM14.7159 17.8119V7.23861L24.3863 12.5254L14.7159 17.8119Z" fill="#C4C4C4"/></svg>
